<?xml version="1.0" encoding="utf-8"?>
<!-- Generator: Adobe Illustrator 27.7.0, SVG Export Plug-In . SVG Version: 6.00 Build 0)  -->
<svg version="1.1" id="Layer_1" xmlns="http://www.w3.org/2000/svg" xmlns:xlink="http://www.w3.org/1999/xlink" x="0px" y="0px"
	 viewBox="0 0 500 500" style="enable-background:new 0 0 500 500;" xml:space="preserve">
<style type="text/css">
	.st0{fill:#E63946;stroke:#201600;stroke-miterlimit:10;}
	.st1{fill:#FFFFFF;}
</style>
<rect class="st0" width="500" height="500"/>
<polygon class="st1" points="80.8,259.6 140.4,259.6 140.4,236 80.8,236 80.8,199 150.8,199 150.8,174.7 49.8,174.7 49.8,325.3 
	150.9,325.3 150.9,301.1 80.8,301.1 "/>
<polygon class="st1" points="441.8,243.9 349.6,243.9 349.6,174.7 341.2,174.7 341.2,325.3 349.6,325.3 349.6,251.7 441.8,251.7 
	441.8,325.3 450.2,325.3 450.2,174.7 441.8,174.7 "/>
<path class="st1" d="M217.2,223.8c1.3-6,3.3-11,5.9-14.9s5.9-6.9,9.7-8.8c3.9-1.9,8.4-2.9,13.6-2.9c6.9,0,12.4,1.1,16.6,3.3
	c4.2,2.1,7.3,5.3,9.4,9.6c2.1,4.2,3.3,9.3,3.6,15.4h31c-1-10.2-3.9-19.3-8.7-27.3c-4.8-8-11.5-14.3-20.2-18.8
	c-8.6-4.6-19.2-6.8-31.8-6.8c-9.4,0-18,1.7-25.7,5.1c-7.7,3.4-14.2,8.2-19.8,14.5c-5.4,6.3-9.7,13.9-12.6,22.9
	c-2.9,8.9-4.3,18.9-4.3,29.9v10.5c0,11,1.4,21,4.2,29.9c2.8,8.9,6.9,16.5,12.3,22.8c5.4,6.3,12,11.1,19.7,14.5c7.7,3.3,16.3,5,26,5
	c12.3,0,22.9-2.2,31.7-6.6c8.8-4.4,15.7-10.6,20.6-18.4c5-7.9,7.8-16.9,8.4-27h-30.9c-0.4,6.1-1.8,11.1-4,15.2
	c-2.2,4.1-5.4,7.1-9.6,9.2c-4.2,2.1-9.5,3.1-16,3.1c-5.5,0-10.2-1-14.2-3c-3.9-2.1-7-5.1-9.5-9.1c-2.4-4.1-4.2-9-5.4-14.9
	c-1.2-5.9-1.8-12.8-1.8-20.6v-10.7C215.3,236.7,215.9,229.7,217.2,223.8z"/>
</svg>
