<svg width="283" height="31" viewBox="0 0 283 31" fill="none" xmlns="http://www.w3.org/2000/svg">
<path d="M15.2969 20.8438V24.5H3.1875V20.8438H15.2969ZM4.71875 1.75V24.5H0.03125V1.75H4.71875ZM13.7188 11.0156V14.5781H3.1875V11.0156H13.7188ZM15.2812 1.75V5.42188H3.1875V1.75H15.2812ZM27.4688 20.4531V7.59375H31.9688V24.5H27.7344L27.4688 20.4531ZM27.9688 16.9844L29.2969 16.9531C29.2969 18.0781 29.1667 19.125 28.9062 20.0938C28.6458 21.0521 28.2552 21.8854 27.7344 22.5938C27.2135 23.2917 26.5573 23.8385 25.7656 24.2344C24.974 24.6198 24.0417 24.8125 22.9688 24.8125C22.1458 24.8125 21.3854 24.6979 20.6875 24.4688C20 24.2292 19.4062 23.8594 18.9062 23.3594C18.4167 22.849 18.0312 22.1979 17.75 21.4062C17.4792 20.6042 17.3438 19.6406 17.3438 18.5156V7.59375H21.8438V18.5469C21.8438 19.0469 21.901 19.4688 22.0156 19.8125C22.1406 20.1562 22.3125 20.4375 22.5312 20.6562C22.75 20.875 23.0052 21.0312 23.2969 21.125C23.599 21.2188 23.9323 21.2656 24.2969 21.2656C25.224 21.2656 25.9531 21.0781 26.4844 20.7031C27.026 20.3281 27.4062 19.8177 27.625 19.1719C27.8542 18.5156 27.9688 17.7865 27.9688 16.9844ZM39.9062 11.2812V24.5H35.4062V7.59375H39.6406L39.9062 11.2812ZM45 7.48438L44.9219 11.6562C44.7031 11.625 44.4375 11.599 44.125 11.5781C43.8229 11.5469 43.5469 11.5312 43.2969 11.5312C42.6615 11.5312 42.1094 11.6146 41.6406 11.7812C41.1823 11.9375 40.7969 12.1719 40.4844 12.4844C40.1823 12.7969 39.9531 13.1771 39.7969 13.625C39.651 14.0729 39.5677 14.5833 39.5469 15.1562L38.6406 14.875C38.6406 13.7812 38.75 12.776 38.9688 11.8594C39.1875 10.9323 39.5052 10.125 39.9219 9.4375C40.349 8.75 40.8698 8.21875 41.4844 7.84375C42.099 7.46875 42.8021 7.28125 43.5938 7.28125C43.8438 7.28125 44.099 7.30208 44.3594 7.34375C44.6198 7.375 44.8333 7.42188 45 7.48438ZM45.9375 16.2188V15.8906C45.9375 14.651 46.1146 13.5104 46.4688 12.4688C46.8229 11.4167 47.3385 10.5052 48.0156 9.73438C48.6927 8.96354 49.526 8.36458 50.5156 7.9375C51.5052 7.5 52.6406 7.28125 53.9219 7.28125C55.2031 7.28125 56.3438 7.5 57.3438 7.9375C58.3438 8.36458 59.1823 8.96354 59.8594 9.73438C60.5469 10.5052 61.0677 11.4167 61.4219 12.4688C61.776 13.5104 61.9531 14.651 61.9531 15.8906V16.2188C61.9531 17.4479 61.776 18.5885 61.4219 19.6406C61.0677 20.6823 60.5469 21.5938 59.8594 22.375C59.1823 23.1458 58.349 23.7448 57.3594 24.1719C56.3698 24.599 55.2344 24.8125 53.9531 24.8125C52.6719 24.8125 51.5312 24.599 50.5312 24.1719C49.5417 23.7448 48.7031 23.1458 48.0156 22.375C47.3385 21.5938 46.8229 20.6823 46.4688 19.6406C46.1146 18.5885 45.9375 17.4479 45.9375 16.2188ZM50.4375 15.8906V16.2188C50.4375 16.9271 50.5 17.5885 50.625 18.2031C50.75 18.8177 50.9479 19.3594 51.2188 19.8281C51.5 20.2865 51.8646 20.6458 52.3125 20.9062C52.7604 21.1667 53.3073 21.2969 53.9531 21.2969C54.5781 21.2969 55.1146 21.1667 55.5625 20.9062C56.0104 20.6458 56.3698 20.2865 56.6406 19.8281C56.9115 19.3594 57.1094 18.8177 57.2344 18.2031C57.3698 17.5885 57.4375 16.9271 57.4375 16.2188V15.8906C57.4375 15.2031 57.3698 14.5573 57.2344 13.9531C57.1094 13.3385 56.9062 12.7969 56.625 12.3281C56.3542 11.849 55.9948 11.474 55.5469 11.2031C55.099 10.9323 54.5573 10.7969 53.9219 10.7969C53.2865 10.7969 52.7448 10.9323 52.2969 11.2031C51.8594 11.474 51.5 11.849 51.2188 12.3281C50.9479 12.7969 50.75 13.3385 50.625 13.9531C50.5 14.5573 50.4375 15.2031 50.4375 15.8906ZM69.2188 10.8438V31H64.7188V7.59375H68.8906L69.2188 10.8438ZM79.9219 15.8594V16.1875C79.9219 17.4167 79.776 18.5573 79.4844 19.6094C79.2031 20.6615 78.7865 21.5781 78.2344 22.3594C77.6823 23.1302 76.9948 23.7344 76.1719 24.1719C75.3594 24.599 74.4219 24.8125 73.3594 24.8125C72.3281 24.8125 71.4323 24.6042 70.6719 24.1875C69.9115 23.7708 69.2708 23.1875 68.75 22.4375C68.2396 21.6771 67.8281 20.7969 67.5156 19.7969C67.2031 18.7969 66.9635 17.724 66.7969 16.5781V15.7188C66.9635 14.4896 67.2031 13.3646 67.5156 12.3438C67.8281 11.3125 68.2396 10.4219 68.75 9.67188C69.2708 8.91146 69.9062 8.32292 70.6562 7.90625C71.4167 7.48958 72.3073 7.28125 73.3281 7.28125C74.401 7.28125 75.3438 7.48438 76.1562 7.89062C76.9792 8.29688 77.6667 8.88021 78.2188 9.64062C78.7812 10.401 79.2031 11.3073 79.4844 12.3594C79.776 13.4115 79.9219 14.5781 79.9219 15.8594ZM75.4062 16.1875V15.8594C75.4062 15.1406 75.3438 14.4792 75.2188 13.875C75.1042 13.2604 74.9167 12.724 74.6562 12.2656C74.4062 11.8073 74.0729 11.4531 73.6562 11.2031C73.25 10.9427 72.7552 10.8125 72.1719 10.8125C71.5573 10.8125 71.0312 10.9115 70.5938 11.1094C70.1667 11.3073 69.8177 11.5938 69.5469 11.9688C69.276 12.3438 69.0729 12.7917 68.9375 13.3125C68.8021 13.8333 68.7188 14.4219 68.6875 15.0781V17.25C68.7396 18.0208 68.8854 18.7135 69.125 19.3281C69.3646 19.9323 69.7344 20.4115 70.2344 20.7656C70.7344 21.1198 71.3906 21.2969 72.2031 21.2969C72.7969 21.2969 73.2969 21.1667 73.7031 20.9062C74.1094 20.6354 74.4375 20.2656 74.6875 19.7969C74.9479 19.3281 75.1302 18.7865 75.2344 18.1719C75.349 17.5573 75.4062 16.8958 75.4062 16.1875ZM87.4688 7.59375V24.5H82.9531V7.59375H87.4688ZM82.6719 3.1875C82.6719 2.53125 82.901 1.98958 83.3594 1.5625C83.8177 1.13542 84.4323 0.921875 85.2031 0.921875C85.9635 0.921875 86.5729 1.13542 87.0312 1.5625C87.5 1.98958 87.7344 2.53125 87.7344 3.1875C87.7344 3.84375 87.5 4.38542 87.0312 4.8125C86.5729 5.23958 85.9635 5.45312 85.2031 5.45312C84.4323 5.45312 83.8177 5.23958 83.3594 4.8125C82.901 4.38542 82.6719 3.84375 82.6719 3.1875ZM100.312 20.6875V13.1562C100.312 12.6146 100.224 12.151 100.047 11.7656C99.8698 11.3698 99.5938 11.0625 99.2188 10.8438C98.8542 10.625 98.3802 10.5156 97.7969 10.5156C97.2969 10.5156 96.8646 10.6042 96.5 10.7812C96.1354 10.9479 95.8542 11.1927 95.6562 11.5156C95.4583 11.8281 95.3594 12.1979 95.3594 12.625H90.8594C90.8594 11.9062 91.026 11.224 91.3594 10.5781C91.6927 9.93229 92.1771 9.36458 92.8125 8.875C93.4479 8.375 94.2031 7.98438 95.0781 7.70312C95.9635 7.42188 96.9531 7.28125 98.0469 7.28125C99.3594 7.28125 100.526 7.5 101.547 7.9375C102.568 8.375 103.37 9.03125 103.953 9.90625C104.547 10.7812 104.844 11.875 104.844 13.1875V20.4219C104.844 21.349 104.901 22.1094 105.016 22.7031C105.13 23.2865 105.297 23.7969 105.516 24.2344V24.5H100.969C100.75 24.0417 100.583 23.4688 100.469 22.7812C100.365 22.0833 100.312 21.3854 100.312 20.6875ZM100.906 14.2031L100.938 16.75H98.4219C97.8281 16.75 97.3125 16.8177 96.875 16.9531C96.4375 17.0885 96.0781 17.2812 95.7969 17.5312C95.5156 17.7708 95.3073 18.0521 95.1719 18.375C95.0469 18.6979 94.9844 19.0521 94.9844 19.4375C94.9844 19.8229 95.0729 20.1719 95.25 20.4844C95.4271 20.7865 95.6823 21.026 96.0156 21.2031C96.349 21.3698 96.7396 21.4531 97.1875 21.4531C97.8646 21.4531 98.4531 21.3177 98.9531 21.0469C99.4531 20.776 99.8385 20.4427 100.109 20.0469C100.391 19.651 100.536 19.276 100.547 18.9219L101.734 20.8281C101.568 21.2552 101.339 21.6979 101.047 22.1562C100.766 22.6146 100.406 23.0469 99.9688 23.4531C99.5312 23.849 99.0052 24.1771 98.3906 24.4375C97.776 24.6875 97.0469 24.8125 96.2031 24.8125C95.1302 24.8125 94.1562 24.599 93.2812 24.1719C92.4167 23.7344 91.7292 23.1354 91.2188 22.375C90.7188 21.6042 90.4688 20.7292 90.4688 19.75C90.4688 18.8646 90.6354 18.0781 90.9688 17.3906C91.3021 16.7031 91.7917 16.125 92.4375 15.6562C93.0938 15.1771 93.9115 14.8177 94.8906 14.5781C95.8698 14.3281 97.0052 14.2031 98.2969 14.2031H100.906ZM112.719 11.2031V24.5H108.219V7.59375H112.438L112.719 11.2031ZM112.062 15.4531H110.844C110.844 14.2031 111.005 13.0781 111.328 12.0781C111.651 11.0677 112.104 10.2083 112.688 9.5C113.271 8.78125 113.964 8.23438 114.766 7.85938C115.578 7.47396 116.484 7.28125 117.484 7.28125C118.276 7.28125 119 7.39583 119.656 7.625C120.312 7.85417 120.875 8.21875 121.344 8.71875C121.823 9.21875 122.188 9.88021 122.438 10.7031C122.698 11.526 122.828 12.5312 122.828 13.7188V24.5H118.297V13.7031C118.297 12.9531 118.193 12.3698 117.984 11.9531C117.776 11.5365 117.469 11.2448 117.062 11.0781C116.667 10.901 116.177 10.8125 115.594 10.8125C114.99 10.8125 114.464 10.9323 114.016 11.1719C113.578 11.4115 113.214 11.7448 112.922 12.1719C112.641 12.5885 112.427 13.0781 112.281 13.6406C112.135 14.2031 112.062 14.8073 112.062 15.4531ZM139.719 16.9531H144.391C144.297 18.4844 143.875 19.8438 143.125 21.0312C142.385 22.2188 141.349 23.1458 140.016 23.8125C138.693 24.4792 137.099 24.8125 135.234 24.8125C133.776 24.8125 132.469 24.5625 131.312 24.0625C130.156 23.5521 129.167 22.8229 128.344 21.875C127.531 20.9271 126.911 19.7812 126.484 18.4375C126.057 17.0938 125.844 15.5885 125.844 13.9219V12.3438C125.844 10.6771 126.062 9.17188 126.5 7.82812C126.948 6.47396 127.583 5.32292 128.406 4.375C129.24 3.42708 130.234 2.69792 131.391 2.1875C132.547 1.67708 133.839 1.42188 135.266 1.42188C137.161 1.42188 138.76 1.76562 140.062 2.45312C141.375 3.14062 142.391 4.08854 143.109 5.29688C143.839 6.50521 144.276 7.88021 144.422 9.42188H139.734C139.682 8.50521 139.5 7.72917 139.188 7.09375C138.875 6.44792 138.401 5.96354 137.766 5.64062C137.141 5.30729 136.307 5.14062 135.266 5.14062C134.484 5.14062 133.802 5.28646 133.219 5.57812C132.635 5.86979 132.146 6.3125 131.75 6.90625C131.354 7.5 131.057 8.25 130.859 9.15625C130.672 10.0521 130.578 11.1042 130.578 12.3125V13.9219C130.578 15.099 130.667 16.1354 130.844 17.0312C131.021 17.9167 131.292 18.6667 131.656 19.2812C132.031 19.8854 132.51 20.3438 133.094 20.6562C133.688 20.9583 134.401 21.1094 135.234 21.1094C136.214 21.1094 137.021 20.9531 137.656 20.6406C138.292 20.3281 138.776 19.8646 139.109 19.25C139.453 18.6354 139.656 17.8698 139.719 16.9531ZM156.312 20.6875V13.1562C156.312 12.6146 156.224 12.151 156.047 11.7656C155.87 11.3698 155.594 11.0625 155.219 10.8438C154.854 10.625 154.38 10.5156 153.797 10.5156C153.297 10.5156 152.865 10.6042 152.5 10.7812C152.135 10.9479 151.854 11.1927 151.656 11.5156C151.458 11.8281 151.359 12.1979 151.359 12.625H146.859C146.859 11.9062 147.026 11.224 147.359 10.5781C147.693 9.93229 148.177 9.36458 148.812 8.875C149.448 8.375 150.203 7.98438 151.078 7.70312C151.964 7.42188 152.953 7.28125 154.047 7.28125C155.359 7.28125 156.526 7.5 157.547 7.9375C158.568 8.375 159.37 9.03125 159.953 9.90625C160.547 10.7812 160.844 11.875 160.844 13.1875V20.4219C160.844 21.349 160.901 22.1094 161.016 22.7031C161.13 23.2865 161.297 23.7969 161.516 24.2344V24.5H156.969C156.75 24.0417 156.583 23.4688 156.469 22.7812C156.365 22.0833 156.312 21.3854 156.312 20.6875ZM156.906 14.2031L156.938 16.75H154.422C153.828 16.75 153.312 16.8177 152.875 16.9531C152.438 17.0885 152.078 17.2812 151.797 17.5312C151.516 17.7708 151.307 18.0521 151.172 18.375C151.047 18.6979 150.984 19.0521 150.984 19.4375C150.984 19.8229 151.073 20.1719 151.25 20.4844C151.427 20.7865 151.682 21.026 152.016 21.2031C152.349 21.3698 152.74 21.4531 153.188 21.4531C153.865 21.4531 154.453 21.3177 154.953 21.0469C155.453 20.776 155.839 20.4427 156.109 20.0469C156.391 19.651 156.536 19.276 156.547 18.9219L157.734 20.8281C157.568 21.2552 157.339 21.6979 157.047 22.1562C156.766 22.6146 156.406 23.0469 155.969 23.4531C155.531 23.849 155.005 24.1771 154.391 24.4375C153.776 24.6875 153.047 24.8125 152.203 24.8125C151.13 24.8125 150.156 24.599 149.281 24.1719C148.417 23.7344 147.729 23.1354 147.219 22.375C146.719 21.6042 146.469 20.7292 146.469 19.75C146.469 18.8646 146.635 18.0781 146.969 17.3906C147.302 16.7031 147.792 16.125 148.438 15.6562C149.094 15.1771 149.911 14.8177 150.891 14.5781C151.87 14.3281 153.005 14.2031 154.297 14.2031H156.906ZM173.453 19.8281C173.453 19.5052 173.359 19.2135 173.172 18.9531C172.984 18.6927 172.635 18.4531 172.125 18.2344C171.625 18.0052 170.901 17.7969 169.953 17.6094C169.099 17.4219 168.302 17.1875 167.562 16.9062C166.833 16.6146 166.198 16.2656 165.656 15.8594C165.125 15.4531 164.708 14.974 164.406 14.4219C164.104 13.8594 163.953 13.2188 163.953 12.5C163.953 11.7917 164.104 11.125 164.406 10.5C164.719 9.875 165.161 9.32292 165.734 8.84375C166.318 8.35417 167.026 7.97396 167.859 7.70312C168.703 7.42188 169.651 7.28125 170.703 7.28125C172.172 7.28125 173.432 7.51562 174.484 7.98438C175.547 8.45312 176.359 9.09896 176.922 9.92188C177.495 10.7344 177.781 11.6615 177.781 12.7031H173.281C173.281 12.2656 173.188 11.875 173 11.5312C172.823 11.1771 172.542 10.901 172.156 10.7031C171.781 10.4948 171.292 10.3906 170.688 10.3906C170.188 10.3906 169.755 10.4792 169.391 10.6562C169.026 10.8229 168.745 11.0521 168.547 11.3438C168.359 11.625 168.266 11.9375 168.266 12.2812C168.266 12.5417 168.318 12.776 168.422 12.9844C168.536 13.1823 168.719 13.3646 168.969 13.5312C169.219 13.6979 169.542 13.8542 169.938 14C170.344 14.1354 170.844 14.2604 171.438 14.375C172.656 14.625 173.745 14.9531 174.703 15.3594C175.661 15.7552 176.422 16.2969 176.984 16.9844C177.547 17.6615 177.828 18.5521 177.828 19.6562C177.828 20.4062 177.661 21.0938 177.328 21.7188C176.995 22.3438 176.516 22.8906 175.891 23.3594C175.266 23.8177 174.516 24.1771 173.641 24.4375C172.776 24.6875 171.802 24.8125 170.719 24.8125C169.146 24.8125 167.812 24.5312 166.719 23.9688C165.635 23.4062 164.812 22.6927 164.25 21.8281C163.698 20.9531 163.422 20.0573 163.422 19.1406H167.688C167.708 19.7552 167.865 20.25 168.156 20.625C168.458 21 168.839 21.2708 169.297 21.4375C169.766 21.6042 170.271 21.6875 170.812 21.6875C171.396 21.6875 171.88 21.6094 172.266 21.4531C172.651 21.2865 172.943 21.0677 173.141 20.7969C173.349 20.5156 173.453 20.1927 173.453 19.8281ZM189.031 7.59375V10.7812H179.188V7.59375H189.031ZM181.625 3.42188H186.125V19.4062C186.125 19.8958 186.188 20.2708 186.312 20.5312C186.448 20.7917 186.646 20.974 186.906 21.0781C187.167 21.1719 187.495 21.2188 187.891 21.2188C188.172 21.2188 188.422 21.2083 188.641 21.1875C188.87 21.1562 189.062 21.125 189.219 21.0938L189.234 24.4062C188.849 24.5312 188.432 24.6302 187.984 24.7031C187.536 24.776 187.042 24.8125 186.5 24.8125C185.51 24.8125 184.646 24.651 183.906 24.3281C183.177 23.9948 182.615 23.4635 182.219 22.7344C181.823 22.0052 181.625 21.0469 181.625 19.8594V3.42188ZM196.344 0.5V24.5H191.828V0.5H196.344ZM207.844 24.8125C206.531 24.8125 205.354 24.6042 204.312 24.1875C203.271 23.7604 202.385 23.1719 201.656 22.4219C200.938 21.6719 200.385 20.8021 200 19.8125C199.615 18.8125 199.422 17.75 199.422 16.625V16C199.422 14.7188 199.604 13.5469 199.969 12.4844C200.333 11.4219 200.854 10.5 201.531 9.71875C202.219 8.9375 203.052 8.33854 204.031 7.92188C205.01 7.49479 206.115 7.28125 207.344 7.28125C208.542 7.28125 209.604 7.47917 210.531 7.875C211.458 8.27083 212.234 8.83333 212.859 9.5625C213.495 10.2917 213.974 11.1667 214.297 12.1875C214.62 13.1979 214.781 14.3229 214.781 15.5625V17.4375H201.344V14.4375H210.359V14.0938C210.359 13.4688 210.245 12.9115 210.016 12.4219C209.797 11.9219 209.464 11.526 209.016 11.2344C208.568 10.9427 207.995 10.7969 207.297 10.7969C206.703 10.7969 206.193 10.9271 205.766 11.1875C205.339 11.4479 204.99 11.8125 204.719 12.2812C204.458 12.75 204.26 13.3021 204.125 13.9375C204 14.5625 203.938 15.25 203.938 16V16.625C203.938 17.3021 204.031 17.9271 204.219 18.5C204.417 19.0729 204.693 19.5677 205.047 19.9844C205.411 20.401 205.849 20.724 206.359 20.9531C206.88 21.1823 207.469 21.2969 208.125 21.2969C208.938 21.2969 209.693 21.1406 210.391 20.8281C211.099 20.5052 211.708 20.0208 212.219 19.375L214.406 21.75C214.052 22.2604 213.568 22.75 212.953 23.2188C212.349 23.6875 211.62 24.0729 210.766 24.375C209.911 24.6667 208.938 24.8125 207.844 24.8125ZM234.188 12.2031V13.375H219.453V12.2031H234.188ZM219.891 1.75V24.5H218.625V1.75H219.891ZM235.094 1.75V24.5H233.828V1.75H235.094ZM251.859 20.5938V7.59375H253.109V24.5H251.875L251.859 20.5938ZM252.078 17.7188L252.891 17.6875C252.891 18.7188 252.76 19.6667 252.5 20.5312C252.25 21.3958 251.854 22.151 251.312 22.7969C250.781 23.4323 250.094 23.9271 249.25 24.2812C248.406 24.6354 247.396 24.8125 246.219 24.8125C245.396 24.8125 244.641 24.6979 243.953 24.4688C243.276 24.2292 242.688 23.8542 242.188 23.3438C241.698 22.8333 241.318 22.1667 241.047 21.3438C240.786 20.5208 240.656 19.526 240.656 18.3594V7.59375H241.891V18.3906C241.891 19.3698 242 20.1979 242.219 20.875C242.448 21.5521 242.76 22.0938 243.156 22.5C243.552 22.9062 244.016 23.2031 244.547 23.3906C245.078 23.5677 245.656 23.6562 246.281 23.6562C247.74 23.6562 248.891 23.375 249.734 22.8125C250.589 22.25 251.193 21.5156 251.547 20.6094C251.901 19.7031 252.078 18.7396 252.078 17.7188ZM259.516 11.2031V24.5H258.281V7.59375H259.5L259.516 11.2031ZM259.281 14.75L258.672 14.0312C258.766 13.1354 258.984 12.2812 259.328 11.4688C259.682 10.6562 260.146 9.9375 260.719 9.3125C261.302 8.6875 261.979 8.19271 262.75 7.82812C263.531 7.46354 264.391 7.28125 265.328 7.28125C266.172 7.28125 266.927 7.40104 267.594 7.64062C268.26 7.86979 268.823 8.23438 269.281 8.73438C269.75 9.23438 270.104 9.88021 270.344 10.6719C270.583 11.4531 270.703 12.4062 270.703 13.5312V24.5H269.469V13.5312C269.469 12.1979 269.286 11.1667 268.922 10.4375C268.557 9.69792 268.047 9.17708 267.391 8.875C266.745 8.57292 265.99 8.42188 265.125 8.42188C264.125 8.42188 263.26 8.64583 262.531 9.09375C261.812 9.53125 261.219 10.0885 260.75 10.7656C260.281 11.4323 259.922 12.125 259.672 12.8438C259.432 13.5625 259.302 14.1979 259.281 14.75ZM281.844 7.59375V8.71875H273.75V7.59375H281.844ZM276.875 3.125H278.125V20.4219C278.125 21.3281 278.234 22.0156 278.453 22.4844C278.682 22.9427 278.979 23.2552 279.344 23.4219C279.719 23.5781 280.12 23.6562 280.547 23.6562C280.849 23.6562 281.125 23.6406 281.375 23.6094C281.635 23.5781 281.896 23.5417 282.156 23.5L282.266 24.5938C282.036 24.6667 281.74 24.7188 281.375 24.75C281.01 24.7917 280.688 24.8125 280.406 24.8125C279.698 24.8125 279.078 24.6823 278.547 24.4219C278.016 24.1615 277.604 23.7135 277.312 23.0781C277.021 22.4323 276.875 21.5469 276.875 20.4219V3.125Z" fill="#000000"/>
</svg>
